HIERARCHY
ROOT hip
{
	OFFSET 0.000000 0.000000 0.000000 
	CHANNELS 6 Xposition Yposition Zposition Xrotation Zrotation Yrotation
	JOINT abdomen
	{
		OFFSET 0.000000 3.402643 0.000000 
		CHANNELS 3 Xrotation Zrotation Yrotation
		JOINT chest
		{
			OFFSET 0.000000 8.438565 -0.680529 
			CHANNELS 3 Xrotation Zrotation Yrotation
			JOINT neck
			{
				OFFSET 0.000000 10.207942 -0.272212 
				CHANNELS 3 Xrotation Zrotation Yrotation
				JOINT head
				{
					OFFSET 0.000000 3.130431 0.000000 
					CHANNELS 3 Xrotation Zrotation Yrotation
					End Site
					{
						OFFSET 0.000000 3.130435 0.000000 
					}
				}
			}
			JOINT lCollar
			{
				OFFSET 3.470700 6.669187 -0.816635 
				CHANNELS 3 Yrotation Zrotation Xrotation
				JOINT lShldr
				{
					OFFSET 3.198488 0.000000 0.000000 
					CHANNELS 3 Zrotation Yrotation Xrotation
					JOINT lForeArm
					{
						OFFSET 10.139888 0.000000 0.000000 
						CHANNELS 3 Yrotation Zrotation Xrotation
						JOINT lHand
						{
							OFFSET 8.370511 0.000000 0.000000 
							CHANNELS 3 Zrotation Yrotation Xrotation
							End Site
							{
								OFFSET 4.083176 0.000000 0.000000 
							}
						}
					}
				}
			}
			JOINT rCollar
			{
				OFFSET -3.470700 6.669187 -0.816635 
				CHANNELS 3 Yrotation Zrotation Xrotation
				JOINT rShldr
				{
					OFFSET -3.198488 0.000000 0.000000 
					CHANNELS 3 Zrotation Yrotation Xrotation
					JOINT rForeArm
					{
						OFFSET -10.139888 0.000000 0.000000 
						CHANNELS 3 Yrotation Zrotation Xrotation
						JOINT rHand
						{
							OFFSET -8.370511 0.000000 0.000000 
							CHANNELS 3 Zrotation Yrotation Xrotation
							End Site
							{
								OFFSET -4.083176 0.000000 0.000000 
							}
						}
					}
				}
			}
		}
	}
	JOINT lThigh
	{
		OFFSET 5.308129 -1.633274 1.361059 
		CHANNELS 3 Xrotation Zrotation Yrotation
		JOINT lShin
		{
			OFFSET -2.041588 -20.007561 0.000000 
			CHANNELS 3 Xrotation Zrotation Yrotation
			JOINT lFoot
			{
				OFFSET 0.000000 -19.190928 -1.224953 
				CHANNELS 3 Xrotation Yrotation Zrotation
				End Site
				{
					OFFSET 0.000000 -2.449906 4.627600 
				}
			}
		}
	}
	JOINT rThigh
	{
		OFFSET -5.308129 -1.633274 1.361059 
		CHANNELS 3 Xrotation Zrotation Yrotation
		JOINT rShin
		{
			OFFSET 2.041588 -20.007561 0.000000 
			CHANNELS 3 Xrotation Zrotation Yrotation
			JOINT rFoot
			{
				OFFSET 0.000000 -19.190928 -1.224953 
				CHANNELS 3 Xrotation Yrotation Zrotation
				End Site
				{
					OFFSET 0.000000 -2.449906 4.627600 
				}
			}
		}
	}
}
MOTION
Frames: 15
Frame Time: 0.041667
0.020916 30.015955 -17.282892 -4.464168 -0.386842 -0.779546 23.296490 -0.211947 4.506510 -14.046229 -7.721753 -7.929712 0.000000 0.000000 6.767593 1.848017 0.715297 -13.593440 -4.028121 -3.141241 -0.461256 -65.436722 -18.947090 14.992432 -44.538521 -8.005962 -11.623996 19.598129 -22.857027 31.193110 -5.375175 11.278348 -6.893106 58.691280 4.287345 15.118093 68.111450 7.122568 -8.077724 2.416154 19.245832 58.411160 -80.572365 7.762822 -0.495983 100.244797 -1.633601 -9.132307 -15.388410 2.853946 2.768085 -80.085068 -8.467069 -1.709246 99.736031 1.785352 9.043935 -15.031303 -0.734781 -4.628127 
-0.032968 29.913752 -17.634165 -2.058400 -0.396959 -0.139853 22.728500 -0.494140 0.160156 -13.654600 -7.318200 -8.288400 0.000000 0.000000 6.452331 -0.685447 0.659579 -12.916411 -2.655120 -5.429470 -0.517557 -66.365997 -16.373699 16.756100 -45.383900 -8.529470 -7.023700 24.004101 -22.858700 40.680599 -4.130780 11.378700 -7.326240 63.104000 5.961870 17.245001 68.296402 10.375300 -5.007880 -12.508200 20.652399 53.519100 -83.582695 7.636213 -0.186658 98.951874 -1.798568 -9.068689 -13.419610 2.309466 3.084131 -83.092674 -8.671844 -1.606984 98.685860 1.894741 8.962910 -13.441343 -1.225798 -4.382638 
-0.052702 29.887569 -17.742041 -2.355244 -0.400345 0.073362 22.663372 0.302029 -1.410207 -12.763442 -5.288787 -8.358323 0.000000 0.000000 6.210174 -3.680905 0.620380 -11.428075 -2.146618 -6.714589 -0.635816 -67.489677 -12.660131 21.005629 -49.690632 -6.675766 5.520680 20.655518 -17.934645 44.302353 -3.244061 14.340141 -8.337900 65.804955 8.829684 22.809927 68.480186 13.839926 1.976072 -29.558062 18.727209 34.185310 -83.444283 7.587450 -0.121380 98.962868 -1.827669 -9.074026 -13.260627 2.131085 3.186827 -82.958527 -8.769772 -1.578251 98.724609 1.903192 8.986553 -13.307418 -1.393921 -4.351883 
-0.046857 29.901548 -17.690035 -4.040154 -0.398677 -0.033274 22.728500 0.505900 -0.839800 -9.654600 -2.318200 -8.288400 0.000000 0.000000 6.054828 -6.190008 0.633294 -9.940445 -2.256451 -7.233702 -0.756190 -68.455856 -9.200068 25.610476 -54.759129 -3.905049 19.469149 13.649653 -11.447479 44.090389 -3.171410 17.953800 -9.276880 67.007080 11.622759 28.939779 61.515598 15.165300 11.497700 -18.124701 10.263800 32.333698 -81.643768 7.596544 -0.201949 99.672813 -1.750242 -9.120222 -14.112836 2.247701 3.139502 -81.158745 -8.759913 -1.593118 99.357018 1.844714 9.036206 -14.052436 -1.301064 -4.417953 
-0.039551 29.915203 -17.637327 -5.058400 -0.397000 -0.139900 22.728500 -0.494100 0.160200 -5.654600 -0.318199 -8.288400 0.000000 0.000000 6.000000 -7.264420 0.733914 -9.265530 -2.418800 -7.330390 -0.811291 -68.866402 -7.673400 27.768200 -57.201500 -2.478900 26.064671 9.800200 -8.214560 43.297001 -3.707600 19.509300 -9.539490 67.280998 12.878750 31.828800 49.938904 13.843800 18.433800 18.058350 -0.060270 55.341801 -80.529556 7.606574 -0.276037 100.080345 -1.682014 -9.139359 -14.624531 2.390794 3.050730 -80.036728 -8.740204 -1.627717 99.804337 1.786962 9.054121 -14.602128 -1.177025 -4.467085 
-0.039551 29.915203 -17.637327 -5.058400 -0.397000 -0.139900 22.796249 -0.312243 0.229236 -5.652178 -0.470930 -8.290670 0.000000 0.000000 6.000000 -7.319018 0.942366 -9.268350 -2.418800 -7.330391 -0.811292 -68.866402 -7.673400 27.768200 -57.201500 -2.478900 26.064674 9.800200 -8.214563 43.297001 -3.707600 19.509300 -9.539491 67.280998 12.878745 31.828800 49.938904 13.843800 18.433800 18.058344 -0.060273 55.341801 -80.529556 7.606574 -0.276037 99.948349 -1.583841 -9.135448 -14.457079 2.505192 2.925035 -80.036728 -8.740204 -1.627717 99.899406 1.728640 9.056458 -14.764675 -1.100068 -4.439228 
-0.039551 29.915203 -17.637327 -5.058400 -0.397000 -0.139900 22.864000 -0.130386 0.298271 -5.649756 -0.623661 -8.292941 0.000000 0.000000 6.000000 -7.373616 1.150817 -9.271170 -2.418800 -7.330392 -0.811293 -68.866402 -7.673400 27.768200 -57.201500 -2.478900 26.064676 9.800200 -8.214567 43.297001 -3.707600 19.509300 -9.539492 67.280998 12.878740 31.828800 49.938904 13.843800 18.433800 18.058338 -0.060276 55.341801 -80.529556 7.606574 -0.276037 99.816490 -1.496572 -9.144343 -14.295455 2.634761 2.830058 -80.036728 -8.740204 -1.627717 99.994888 1.679874 9.059991 -14.916922 -1.023317 -4.411181 
-0.039551 29.915203 -17.637327 -5.058400 -0.397000 -0.139900 22.931751 0.051471 0.367307 -5.647335 -0.776392 -8.295212 0.000000 0.000000 6.000000 -7.428214 1.359269 -9.273990 -2.418800 -7.330393 -0.811294 -68.866402 -7.673400 27.768200 -57.201500 -2.478900 26.064678 9.800200 -8.214571 43.297001 -3.707600 19.509300 -9.539493 67.280998 12.878736 31.828800 49.938904 13.843800 18.433800 18.058334 -0.060279 55.341801 -80.655678 7.296944 -0.294510 99.830833 -1.392337 -9.151498 -14.162417 3.059085 2.733469 -80.036728 -8.740204 -1.627717 100.089966 1.621550 9.061905 -15.078267 -0.949209 -4.363899 
-0.039551 29.915203 -17.637327 -5.058400 -0.397000 -0.139900 22.999500 0.233328 0.436343 -5.644913 -0.929123 -8.297482 0.000000 0.000000 6.000000 -7.482811 1.567720 -9.276810 -2.418800 -7.330394 -0.811295 -68.866402 -7.673400 27.768200 -57.201500 -2.478900 26.064682 9.800200 -8.214575 43.297001 -3.707600 19.509300 -9.539494 67.280998 12.878731 31.828800 49.938904 13.843800 18.433800 18.058329 -0.060282 55.341801 -80.684761 7.184387 -0.293389 99.884262 -1.286162 -9.160164 -14.151802 3.289547 2.634885 -79.975204 -8.555390 -1.625069 100.048653 1.587265 9.074759 -15.158584 -1.068617 -4.351100 
-0.039551 29.915203 -17.637327 -5.058400 -0.397000 -0.139900 23.067249 0.415185 0.505379 -5.642490 -1.081855 -8.299753 0.000000 0.000000 6.000000 -7.537410 1.776172 -9.279630 -2.418800 -7.330395 -0.811295 -68.866402 -7.673400 27.768200 -57.201500 -2.478900 26.064686 9.800200 -8.214579 43.297001 -3.707600 19.509300 -9.539495 67.280998 12.878726 31.828800 49.938904 13.843800 18.433800 18.058323 -0.060285 55.341801 -80.655884 7.065650 -0.297986 99.908813 -1.189191 -9.166738 -14.178167 3.518813 2.556376 -79.944778 -8.463006 -1.618956 99.968964 1.551501 9.063015 -15.176853 -1.087549 -4.304982 
-0.039551 29.915203 -17.637327 -5.058400 -0.397000 -0.139900 23.135000 0.597042 0.574414 -5.640069 -1.234586 -8.302025 0.000000 0.000000 6.000000 -7.592008 1.984624 -9.282450 -2.418800 -7.330396 -0.811296 -68.866402 -7.673400 27.768200 -57.201500 -2.478900 26.064688 9.800200 -8.214582 43.297001 -3.707600 19.509300 -9.539495 67.280998 12.878721 31.828800 49.938904 13.843800 18.433800 18.058319 -0.060288 55.341801 -80.694763 6.948860 -0.293453 99.864395 -1.083336 -9.174717 -14.068148 3.754606 2.445470 -79.920784 -8.406898 -1.614661 99.976341 1.504053 9.066916 -15.275945 -1.070508 -4.274305 
-0.039551 29.915203 -17.637327 -5.058400 -0.397000 -0.139900 23.202751 0.778899 0.643450 -5.637647 -1.387317 -8.304296 0.000000 0.000000 6.000000 -7.646605 2.193075 -9.285270 -2.418800 -7.330397 -0.811297 -68.866402 -7.673400 27.768200 -57.201500 -2.478900 26.064690 9.800200 -8.214586 43.297001 -3.707600 19.509300 -9.539496 67.280998 12.878716 31.828800 49.938904 13.843800 18.433800 18.058315 -0.060291 55.341801 -80.723465 6.845056 -0.299076 99.840591 -0.988943 -9.169375 -13.973420 3.955399 2.359292 -79.965065 -8.345485 -1.622173 100.022240 1.433999 9.058948 -15.345372 -1.057141 -4.224343 
-0.039551 29.915203 -17.637327 -5.058400 -0.397000 -0.139900 23.270500 0.960756 0.712486 -5.635224 -1.540048 -8.306567 0.000000 0.000000 6.000000 -7.701204 2.401527 -9.288090 -2.418800 -7.330398 -0.811298 -68.866402 -7.673400 27.768200 -57.201500 -2.478900 26.064693 9.800200 -8.214591 43.297001 -3.707600 19.509300 -9.539497 67.280998 12.878711 31.828800 49.938904 13.843800 18.433800 18.058310 -0.060294 55.341801 -80.683945 6.726146 -0.294566 99.884666 -0.883093 -9.168114 -14.029733 4.186086 2.272666 -79.959534 -8.302510 -1.617384 99.952438 1.411240 9.063025 -15.346992 -1.032802 -4.191750 
-0.039551 29.915203 -17.637327 -5.058400 -0.397000 -0.139900 23.338249 1.142613 0.781521 -5.632802 -1.692779 -8.308838 0.000000 0.000000 6.000000 -7.755802 2.609978 -9.290910 -2.418800 -7.330399 -0.811299 -68.866402 -7.673400 27.768200 -57.201500 -2.478900 26.064697 9.800200 -8.214596 43.297001 -3.707600 19.509300 -9.539499 67.280998 12.878706 31.828800 49.938904 13.843800 18.433800 18.058304 -0.060297 55.341801 -80.702011 6.623090 -0.290389 99.850136 -0.781133 -9.181367 -13.942264 4.408222 2.169586 -79.944435 -8.252051 -1.616698 99.978989 1.363760 9.078614 -15.435973 -1.019263 -4.161382 
-0.039551 29.915203 -17.637327 -5.058400 -0.397000 -0.139900 23.406000 1.324470 0.850557 -5.630380 -1.845510 -8.311110 0.000000 0.000000 6.000000 -7.810400 2.818430 -9.293730 -2.418800 -7.330400 -0.811300 -68.866402 -7.673400 27.768200 -57.201500 -2.478900 26.064699 9.800200 -8.214600 43.297001 -3.707600 19.509300 -9.539500 67.280998 12.878700 31.828800 49.938900 13.843800 18.433800 18.058300 -0.060300 55.341801 -80.710396 6.513686 -0.282871 99.825333 -0.674134 -9.190516 -13.881958 4.629443 2.096669 -80.007927 -8.202291 -1.616939 99.918793 1.317311 9.056993 -15.388410 -0.997557 -4.118979 
